<svg width="189" height="15" viewBox="0 0 189 15" fill="none" xmlns="http://www.w3.org/2000/svg">
<path fill-rule="evenodd" clip-rule="evenodd" d="M35.5371 13.7224C36.0933 13.5624 36.632 13.5163 37.1443 13.1983C37.5688 12.9343 37.9827 12.6583 38.2637 12.0603C38.5691 11.4133 38.5465 10.7144 38.3013 10.0444C38.1483 9.62536 37.9877 9.02534 37.6071 9.22134C36.4457 9.82034 35.3263 10.5763 34.592 12.2583C34.323 12.8753 34.4396 13.3494 34.8968 13.5524C35.1106 13.6464 35.337 13.6714 35.5371 13.7224ZM1.38172 1.42035C3.36961 4.03435 5.76322 4.99635 8.21892 5.69035C12.7089 6.96035 17.1945 6.59935 21.672 5.50635C24.0775 4.91835 26.4893 4.42635 28.9149 4.12135C30.768 3.89035 32.6048 4.07334 34.4171 4.79034C35.0761 5.05234 35.8048 5.25435 36.2977 5.92735C37.6629 7.79235 39.1867 7.62835 40.8291 7.47435C44.2079 7.15735 72.6604 7.92034 76.0373 8.09434C80.2063 8.30834 178.388 7.91235 182.392 5.88235C184.081 5.02535 186.98 4.04135 188.008 1.50035C188.056 1.38135 188.119 1.27335 188.184 1.17735C188.369 0.902353 188.597 0.844349 188.803 1.04535C189.075 1.31035 188.919 1.68635 188.817 1.97635C188.319 3.37735 187.665 4.51635 186.745 5.27035C184.924 6.76535 181.724 7.62434 179.731 8.26034C175.669 9.55534 77.5072 9.30135 73.4092 8.96335C71.6539 8.81835 44.8193 8.57435 43.0653 8.40535C41.6707 8.27035 40.2835 8.36236 38.9146 8.78136C38.9146 8.95336 38.9027 9.02636 38.9158 9.08536C39.6163 12.1444 39.2156 13.3784 37.2177 14.2104C36.4733 14.5204 35.7133 14.6484 34.9419 14.4054C34.4334 14.2444 33.9706 13.9994 33.8031 13.1134C33.6388 12.2454 33.9054 11.5724 34.2578 10.9834C34.8585 9.97635 35.6179 9.34136 36.3974 8.76836C36.6414 8.58936 36.9098 8.48435 37.133 8.02035C35.6537 5.99935 33.8633 5.47035 32.0216 5.28735C29.125 4.99935 26.2636 5.66235 23.4134 6.35535C18.7604 7.48735 14.1023 8.02035 9.41604 6.97935C7.13279 6.47235 4.88718 5.69734 2.83031 3.95634C2.03452 3.28334 1.18731 2.63835 0.705078 1.27335C1.04371 0.910346 1.22306 1.21135 1.38172 1.42035Z" fill="#7B5418"/>
</svg>
