<svg width="101" height="97" viewBox="0 0 101 97" fill="none" xmlns="http://www.w3.org/2000/svg">
<path d="M6.01723 59.5859C5.75353 59.5859 5.54032 59.3727 5.54032 59.109V14.5094C5.54032 14.2456 5.75353 14.0324 6.01723 14.0324C6.28094 14.0324 6.49414 14.2456 6.49414 14.5094V59.109C6.49414 59.3727 6.28094 59.5859 6.01723 59.5859Z" fill="#A56100" fill-opacity="0.7"/>
<path d="M10.6657 61.332C10.402 61.332 10.1887 61.1188 10.1887 60.8551V32.5434C10.1887 32.2797 10.402 32.0665 10.6657 32.0665C10.9294 32.0665 11.1426 32.2797 11.1426 32.5434V60.8551C11.1426 61.1188 10.9294 61.332 10.6657 61.332Z" fill="#A56100" fill-opacity="0.7"/>
<path d="M6.09976 30.4378C7.44072 29.7084 8.6807 28.7265 9.74113 27.6212C10.8128 26.5271 11.6768 25.231 12.2267 23.8284C12.7934 22.4313 13.0178 20.9052 12.8775 19.3959C12.7597 17.8922 12.3557 16.4054 11.6432 15.0868C10.9306 13.7627 9.887 12.6293 8.72558 11.6138C7.56416 10.5926 6.26247 9.69493 5.10105 8.55034C3.9228 7.45064 2.9858 5.84035 3.05313 4.10664C3.08118 3.23698 3.4515 2.38415 4.04062 1.77258C4.61853 1.14418 5.3367 0.712156 6.13342 0.431622C6.26808 0.386736 6.40835 0.454063 6.45885 0.58872C6.50373 0.717768 6.43641 0.85803 6.31297 0.908527L6.29052 0.919752C4.93273 1.45277 3.70959 2.68152 3.7657 4.1347C3.7657 4.83604 3.96207 5.58788 4.30994 6.22189C4.45021 6.55853 4.70269 6.83907 4.90467 7.14205C5.16277 7.41136 5.39281 7.70873 5.68456 7.9556C6.8011 8.99359 8.11401 9.88009 9.32593 10.9349C10.5435 11.9729 11.6824 13.1904 12.4792 14.638C13.2927 16.0799 13.7023 17.7127 13.8145 19.3398C13.9492 20.9725 13.6967 22.6557 13.0515 24.165C11.7554 27.2172 9.20249 29.4896 6.3298 30.9035C6.20637 30.9652 6.04927 30.9147 5.98755 30.7857C5.92583 30.6622 5.97633 30.5163 6.09415 30.449L6.11098 30.4378H6.09976Z" fill="#A56100" fill-opacity="0.7"/>
<path d="M9.92773 2.9428C9.92773 4.5643 8.60922 5.88281 6.98772 5.88281C5.36622 5.88281 4.04769 4.5643 4.04769 2.9428C4.04769 1.3213 5.36622 0.00277185 6.98772 0.00277185C8.60922 0.00277185 9.92773 1.3213 9.92773 2.9428Z" fill="#A56100" fill-opacity="0.7"/>
<path d="M12.7985 70.9258C12.7312 70.9258 12.6582 70.9089 12.5909 70.8809C12.3552 70.7687 12.2542 70.4769 12.3665 70.2413C14.1226 66.5943 12.5909 62.2011 8.94391 60.4449C7.58611 59.7885 6.05439 59.7043 4.62926 60.1981C3.20414 60.6974 2.05955 61.7186 1.4031 63.0764C0.903741 64.1144 0.836406 65.287 1.21232 66.3755C1.59385 67.464 2.37375 68.3392 3.41735 68.8442C4.20846 69.2257 5.10056 69.2762 5.92534 68.9845C6.75012 68.6983 7.41779 68.1036 7.79932 67.3125C8.08547 66.7177 8.12475 66.0444 7.90593 65.4217C7.68711 64.7989 7.24386 64.2995 6.64912 64.0134C6.20587 63.8002 5.71213 63.7721 5.24644 63.9348C4.78636 64.0975 4.41044 64.4286 4.19724 64.8662C4.08502 65.1075 3.79887 65.2028 3.55761 65.0906C3.32196 64.9784 3.22096 64.6867 3.33318 64.451C3.6586 63.7777 4.22529 63.2727 4.92663 63.0315C5.63358 62.7846 6.39103 62.8295 7.05871 63.1549C7.88349 63.5533 8.50627 64.2434 8.80364 65.1075C9.10662 65.9715 9.05052 66.9029 8.65215 67.7277C8.16402 68.7488 7.29997 69.5175 6.23393 69.8878C5.16228 70.2637 4.01208 70.1964 2.99093 69.7026C1.72291 69.0911 0.763473 68.0194 0.297782 66.6897C-0.167909 65.3599 -0.0837545 63.9236 0.527815 62.6556C1.29648 61.0677 2.63184 59.8726 4.29822 59.2891C5.96461 58.7056 7.75443 58.8066 9.34788 59.5753C13.4662 61.5615 15.2055 66.5326 13.2193 70.6509C13.1351 70.8248 12.9668 70.9202 12.7873 70.9202L12.7985 70.9258Z" fill="#A56100" fill-opacity="0.7"/>
<path d="M9.82623 88.4141C9.82623 88.4141 9.80939 88.4141 9.79817 88.4141C9.53447 88.3972 9.33248 88.1728 9.3437 87.9091L9.41103 86.585C9.78695 78.5616 10.4883 63.6203 23.1012 62.6328C31.5454 61.9707 36.4996 60.8878 39.6641 59.0139C44.2761 56.2758 45.5329 50.2892 44.3771 46.0475C43.3054 42.1087 40.3374 39.0453 36.4379 37.8446C31.6071 36.3577 26.4676 39.0789 24.9808 43.9098C23.8306 47.6409 25.9346 51.6133 29.6658 52.7579C31.0572 53.1899 32.5272 53.0496 33.8121 52.3651C35.0969 51.6862 36.0395 50.5416 36.4716 49.1558C36.797 48.0898 36.6904 46.9676 36.1742 45.9801C35.6524 44.9982 34.7827 44.2745 33.7167 43.949C32.9088 43.7022 32.0559 43.7807 31.3097 44.1735C30.5635 44.5662 30.0136 45.2283 29.7668 46.0362C29.5816 46.6422 29.6377 47.2874 29.9351 47.8429C30.2324 48.404 30.7262 48.8135 31.3321 48.9987C31.781 49.139 32.2579 49.0941 32.6731 48.8697C33.0883 48.6508 33.3913 48.2805 33.5315 47.8373C33.6101 47.5848 33.8738 47.4445 34.1319 47.5175C34.3844 47.596 34.5246 47.8653 34.4517 48.1178C34.2385 48.8079 33.7672 49.3802 33.1276 49.7169C32.488 50.0535 31.7529 50.1265 31.0572 49.9133C30.2044 49.6495 29.5087 49.0716 29.0935 48.2861C28.6783 47.5006 28.5941 46.5973 28.8522 45.7445C29.1776 44.6953 29.8902 43.8312 30.8608 43.315C31.8315 42.7988 32.948 42.6979 34.0028 43.0177C35.3101 43.4216 36.3818 44.3081 37.0214 45.5201C37.661 46.732 37.7901 48.1178 37.3917 49.4251C36.8868 51.0578 35.7815 52.4044 34.2666 53.2011C32.7517 54.0035 31.0236 54.1662 29.3852 53.6612C25.1491 52.3595 22.7646 47.8541 24.0663 43.6124C25.7102 38.2766 31.3883 35.2693 36.7241 36.9132C40.9377 38.2093 44.1414 41.5252 45.3029 45.7781C46.5541 50.3621 45.1738 56.8425 40.1522 59.8218C36.8531 61.7799 31.7754 62.9021 23.1741 63.5754C11.4084 64.4955 10.7296 78.8814 10.3649 86.613L10.2975 87.9428C10.2807 88.2009 10.0731 88.3972 9.82062 88.3972L9.82623 88.4141Z" fill="#A56100" fill-opacity="0.7"/>
<path d="M40.5051 96.4609C40.3088 96.4609 40.1068 96.4497 39.8992 96.4273C35.7585 95.9952 34.9169 93.7734 34.7485 92.8364C34.468 91.3103 35.2142 89.6383 36.443 89.0211C38.5638 87.9607 40.8979 88.8079 41.8349 90.205C42.4408 91.1083 42.3623 92.0677 41.6273 92.7186C41.4309 92.8925 41.1279 92.8757 40.9484 92.6737C40.7745 92.4773 40.7913 92.1743 40.9933 91.9948C41.459 91.5852 41.2738 91.0859 41.0382 90.7324C40.4378 89.8459 38.7041 88.9594 36.8694 89.8739C36.1288 90.2443 35.4667 91.4169 35.6911 92.6569C35.9717 94.2054 37.5034 95.2041 40.0002 95.4622C42.7607 95.754 44.6851 93.5939 44.9208 91.344C45.1621 89.0548 43.7145 86.1877 38.8275 85.6547C31.3933 84.8411 23.471 91.6638 20.4019 94.6375C20.2111 94.8226 19.9082 94.817 19.723 94.6262C19.5379 94.4355 19.5435 94.1325 19.7342 93.9473C22.8987 90.8839 31.096 83.848 38.9285 84.7009C44.1577 85.2731 46.1832 88.4993 45.869 91.4449C45.5997 94.009 43.5462 96.4609 40.5051 96.4609Z" fill="#A56100" fill-opacity="0.7"/>
<path d="M36.3297 85.3772C36.268 85.3772 36.2006 85.366 36.1333 85.3379C35.892 85.2313 35.7854 84.9452 35.892 84.7039C36.7168 82.8524 35.8247 77.6344 34.955 73.2917C34.2874 69.9533 34.7979 66.9291 36.4026 64.7802C37.7043 63.0409 39.6512 62.0029 42.0302 61.7841C46.2214 61.4026 49.5934 63.5795 50.4294 67.2041C50.6875 68.3262 50.6595 69.5101 50.3397 70.6266C49.9413 72.0405 49.0155 73.2075 47.7307 73.9257C46.4514 74.6439 44.9646 74.8178 43.5563 74.4138C42.4229 74.094 41.4859 73.3478 40.908 72.321C40.3357 71.2943 40.1955 70.0992 40.5153 68.9714C40.7734 68.0569 41.3737 67.2994 42.2041 66.8337C43.0345 66.3737 43.9939 66.2615 44.9085 66.5195C45.6547 66.7328 46.2719 67.2209 46.6478 67.8942C47.0237 68.5675 47.1135 69.3474 46.9003 70.0936C46.8273 70.3461 46.5636 70.4976 46.3055 70.4246C46.0531 70.3517 45.9016 70.088 45.9745 69.8299C46.1148 69.3361 46.0531 68.8143 45.8062 68.3599C45.5537 67.911 45.1441 67.58 44.6448 67.4397C43.9771 67.2489 43.2758 67.3331 42.6698 67.6697C42.0638 68.0064 41.6262 68.5619 41.4354 69.2295C41.183 70.116 41.2896 71.0474 41.7384 71.8553C42.1873 72.6577 42.9223 73.2412 43.8088 73.4937C44.9758 73.8247 46.1989 73.6844 47.2538 73.0897C48.3142 72.5006 49.0773 71.5299 49.4083 70.3685C49.6832 69.4091 49.7057 68.3935 49.4868 67.4285C48.763 64.2921 45.795 62.4069 42.1087 62.7491C40.0047 62.9399 38.2934 63.8432 37.1601 65.3637C35.7405 67.2602 35.2805 70.088 35.8864 73.1122C37.2554 79.946 37.5079 83.4191 36.7617 85.0967C36.6832 85.2762 36.5092 85.3828 36.3241 85.3828L36.3297 85.3772Z" fill="#A56100" fill-opacity="0.7"/>
<path d="M85.1266 95.8477H43.0461C42.7824 95.8477 42.5692 95.6344 42.5692 95.3707C42.5692 95.107 42.7824 94.8938 43.0461 94.8938H85.1266C85.3903 94.8938 85.6035 95.107 85.6035 95.3707C85.6035 95.6344 85.3903 95.8477 85.1266 95.8477Z" fill="#A56100" fill-opacity="0.7"/>
<path d="M70.4899 91.9727H45.4773C45.2136 91.9727 45.0003 91.7594 45.0003 91.4957C45.0003 91.232 45.2136 91.0188 45.4773 91.0188H70.4899C70.7536 91.0188 70.9668 91.232 70.9668 91.4957C70.9668 91.7594 70.7536 91.9727 70.4899 91.9727Z" fill="#A56100" fill-opacity="0.7"/>
<path d="M54.6819 91.5881C54.4574 91.5881 54.2555 91.431 54.2106 91.201C52.2188 80.8885 41.1151 80.0749 37.0025 80.6304C36.7332 80.6641 36.4975 80.4789 36.4638 80.2208C36.4302 79.9571 36.6097 79.7158 36.8734 79.6822C41.233 79.093 53.0211 79.9795 55.1532 91.0215C55.2037 91.2795 55.0353 91.532 54.7716 91.5825C54.7436 91.5881 54.7099 91.5938 54.6819 91.5938V91.5881Z" fill="#A56100" fill-opacity="0.7"/>
<path d="M20.1723 64.1484C20.1162 64.1484 20.0657 64.1372 20.0096 64.1204C19.7627 64.0306 19.6337 63.7557 19.7234 63.5088C23.8978 51.9114 10.578 44.5838 10.4433 44.5109C10.2077 44.3875 10.1235 44.0957 10.2469 43.86C10.3704 43.6244 10.6621 43.5402 10.8978 43.6637C11.038 43.7422 25.0761 51.4682 20.6212 63.8342C20.5482 64.0306 20.3687 64.1484 20.1723 64.1484Z" fill="#A56100" fill-opacity="0.7"/>
<path d="M96.6916 95.7812C94.8457 95.7812 93.2971 94.5413 91.5241 93.1218C89.566 91.5564 87.3498 89.7778 84.1741 89.2504C78.1033 88.2404 74.1253 93.7277 73.6596 95.2202C73.581 95.4727 73.3117 95.6129 73.0592 95.5344C72.8068 95.4558 72.6665 95.1865 72.745 94.934C73.2612 93.2789 77.6488 87.1856 84.3312 88.3021C87.7537 88.8744 90.071 90.7316 92.1245 92.3699C93.9592 93.8399 95.4124 95.0014 97.09 94.7938C97.3537 94.7657 97.5949 94.9453 97.623 95.209C97.6567 95.4727 97.4715 95.7139 97.2078 95.742C97.0339 95.7644 96.8599 95.7756 96.6916 95.7756V95.7812Z" fill="#A56100" fill-opacity="0.7"/>
<path d="M100.018 92.9162C100.018 94.5264 98.7159 95.8281 97.1112 95.8281C95.5066 95.8281 94.2049 94.5264 94.2049 92.9218C94.2049 91.3171 95.5066 90.0154 97.1112 90.0154C98.7159 90.0154 100.018 91.3115 100.018 92.9162Z" fill="#A56100" fill-opacity="0.7"/>
<path d="M13.3162 92.0452C13.3162 92.0452 13.2882 92.0452 13.2769 92.0452C13.1311 92.0283 13.0132 91.9273 12.9684 91.7871C12.9459 91.7029 10.5165 83.1073 13.6248 75.14C16.7668 67.083 27.2533 65.7477 27.3599 65.7365C27.4945 65.7252 27.6236 65.7814 27.7021 65.8936C27.7751 66.0058 27.7863 66.1517 27.719 66.2695L13.6304 91.8656C13.5687 91.9835 13.4453 92.0508 13.3162 92.0508V92.0452ZM26.7371 66.5669C24.375 67.0213 16.8173 68.9458 14.3037 75.3981C11.8574 81.6653 12.9403 88.3421 13.4509 90.7042L26.7371 66.5669Z" fill="#A56100" fill-opacity="0.7"/>
<path d="M15.4207 93.168C15.3141 93.168 15.2131 93.1175 15.1401 93.0333C15.0504 92.9211 15.0335 92.764 15.1065 92.6349L29.0323 66.949C29.094 66.8312 29.2062 66.7639 29.3577 66.7583C29.4924 66.7583 29.6158 66.8368 29.6719 66.9603C29.7168 67.0556 34.2615 76.5995 29.1782 83.5961C24.151 90.5253 15.6058 93.1175 15.5217 93.1455C15.488 93.1567 15.4543 93.1624 15.4207 93.1624V93.168ZM29.3072 67.9477L16.1725 92.1693C18.4336 91.3276 24.6391 88.6345 28.5947 83.1865C32.6624 77.5814 30.2049 70.1864 29.3072 67.9477Z" fill="#A56100" fill-opacity="0.7"/>
</svg>
