<svg width="101" height="97" viewBox="0 0 101 97" fill="none" xmlns="http://www.w3.org/2000/svg">
<path d="M94.0003 36.875C94.264 36.875 94.4773 37.0882 94.4773 37.3519V81.9516C94.4773 82.2153 94.264 82.4285 94.0003 82.4285C93.7366 82.4285 93.5234 82.2153 93.5234 81.9516V37.3519C93.5234 37.0882 93.7366 36.875 94.0003 36.875Z" fill="#A56100" fill-opacity="0.7"/>
<path d="M89.3519 35.1289C89.6156 35.1289 89.8288 35.3421 89.8288 35.6058V63.9175C89.8288 64.1813 89.6156 64.3945 89.3519 64.3945C89.0882 64.3945 88.875 64.1813 88.875 63.9175V35.6058C88.875 35.3421 89.0882 35.1289 89.3519 35.1289Z" fill="#A56100" fill-opacity="0.7"/>
<path d="M93.9178 66.0231C92.5769 66.7525 91.3369 67.7344 90.2765 68.8397C89.2048 69.9338 88.3408 71.2299 87.7909 72.6326C87.2242 74.0297 86.9998 75.5558 87.1401 77.0651C87.2579 78.5687 87.6619 80.0556 88.3744 81.3741C89.087 82.6982 90.1306 83.8316 91.292 84.8471C92.4534 85.8683 93.7551 86.766 94.9165 87.9106C96.0948 89.0103 97.0318 90.6206 96.9644 92.3543C96.9364 93.224 96.5661 94.0768 95.977 94.6884C95.399 95.3168 94.6809 95.7488 93.8842 96.0293C93.7495 96.0742 93.6092 96.0069 93.5587 95.8722C93.5138 95.7432 93.5812 95.6029 93.7046 95.5524L93.7271 95.5412C95.0849 95.0082 96.308 93.7794 96.2519 92.3262C96.2519 91.6249 96.0555 90.8731 95.7076 90.239C95.5674 89.9024 95.3149 89.6219 95.1129 89.3189C94.8548 89.0496 94.6248 88.7522 94.333 88.5053C93.2165 87.4674 91.9036 86.5809 90.6916 85.526C89.4741 84.488 88.3351 83.2705 87.5384 81.823C86.7249 80.381 86.3153 78.7483 86.2031 77.1212C86.0684 75.4884 86.3209 73.8052 86.9661 72.2959C88.2622 69.2437 90.8151 66.9714 93.6878 65.5575C93.8112 65.4957 93.9683 65.5462 94.03 65.6753C94.0917 65.7987 94.0413 65.9446 93.9234 66.0119L93.9066 66.0231H93.9178Z" fill="#A56100" fill-opacity="0.7"/>
<path d="M90.0898 93.5181C90.0898 91.8966 91.4084 90.5781 93.0299 90.5781C94.6514 90.5781 95.9699 91.8966 95.9699 93.5181C95.9699 95.1396 94.6514 96.4582 93.0299 96.4582C91.4084 96.4582 90.0898 95.1396 90.0898 93.5181Z" fill="#A56100" fill-opacity="0.7"/>
<path d="M87.2191 25.5352C87.2864 25.5352 87.3594 25.552 87.4267 25.58C87.6623 25.6923 87.7633 25.984 87.6511 26.2197C85.895 29.8666 87.4267 34.2598 91.0737 36.016C92.4315 36.6725 93.9632 36.7566 95.3883 36.2629C96.8134 35.7635 97.958 34.7424 98.6145 33.3846C99.1138 32.3466 99.1812 31.1739 98.8053 30.0855C98.4237 28.997 97.6438 28.1217 96.6002 27.6167C95.8091 27.2352 94.917 27.1847 94.0922 27.4765C93.2675 27.7626 92.5998 28.3574 92.2183 29.1485C91.9321 29.7432 91.8928 30.4165 92.1117 31.0393C92.3305 31.6621 92.7737 32.1614 93.3685 32.4476C93.8117 32.6608 94.3054 32.6888 94.7711 32.5261C95.2312 32.3634 95.6071 32.0324 95.8203 31.5947C95.9326 31.3535 96.2187 31.2581 96.46 31.3703C96.6956 31.4825 96.7966 31.7743 96.6844 32.0099C96.359 32.6832 95.7923 33.1882 95.0909 33.4295C94.384 33.6763 93.6265 33.6314 92.9589 33.306C92.1341 32.9077 91.5113 32.2175 91.2139 31.3535C90.911 30.4894 90.9671 29.558 91.3654 28.7333C91.8536 27.7121 92.7176 26.9435 93.7836 26.5731C94.8553 26.1972 96.0055 26.2646 97.0266 26.7583C98.2947 27.3699 99.2541 28.4415 99.7198 29.7713C100.185 31.101 100.101 32.5373 99.4898 33.8054C98.7211 35.3932 97.3857 36.5883 95.7194 37.1718C94.053 37.7553 92.2631 37.6543 90.6697 36.8857C86.5514 34.8995 84.8121 29.9284 86.7983 25.8101C86.8825 25.6362 87.0508 25.5408 87.2303 25.5408L87.2191 25.5352Z" fill="#A56100" fill-opacity="0.7"/>
<path d="M90.1914 8.04688C90.1914 8.04688 90.2082 8.04688 90.2194 8.04688C90.4831 8.06371 90.6851 8.28814 90.6739 8.55184L90.6066 9.87597C90.2306 17.8993 89.5293 32.8407 76.9164 33.8282C68.4722 34.4902 63.518 35.5731 60.3535 37.4471C55.7415 40.1851 54.4847 46.1718 55.6405 50.4135C56.7121 54.3522 59.6802 57.4157 63.5797 58.6164C68.4105 60.1032 73.5499 57.382 75.0368 52.5512C76.187 48.82 74.083 44.8476 70.3518 43.703C68.9604 43.271 67.4903 43.4113 66.2055 44.0958C64.9206 44.7747 63.978 45.9193 63.546 47.3051C63.2206 48.3712 63.3272 49.4933 63.8434 50.4808C64.3652 51.4627 65.2348 52.1865 66.3009 52.5119C67.1088 52.7588 67.9616 52.6802 68.7079 52.2875C69.4541 51.8947 70.004 51.2326 70.2508 50.4247C70.436 49.8187 70.3799 49.1735 70.0825 48.618C69.7851 48.057 69.2914 47.6474 68.6854 47.4622C68.2366 47.322 67.7597 47.3669 67.3445 47.5913C66.9293 47.8101 66.6263 48.1804 66.486 48.6237C66.4075 48.8761 66.1438 49.0164 65.8857 48.9435C65.6332 48.8649 65.4929 48.5956 65.5659 48.3431C65.7791 47.653 66.2504 47.0807 66.89 46.7441C67.5296 46.4074 68.2646 46.3345 68.9604 46.5477C69.8132 46.8114 70.5089 47.3893 70.9241 48.1748C71.3393 48.9603 71.4235 49.8636 71.1654 50.7165C70.84 51.7657 70.1274 52.6297 69.1567 53.1459C68.1861 53.6621 67.0695 53.7631 66.0147 53.4433C64.7074 53.0393 63.6358 52.1528 62.9962 50.9409C62.3565 49.729 62.2275 48.3431 62.6258 47.0358C63.1308 45.4031 64.2361 44.0565 65.751 43.2598C67.2659 42.4575 68.994 42.2948 70.6324 42.7997C74.8685 44.1014 77.253 48.6068 75.9513 52.8485C74.3074 58.1843 68.6293 61.1917 63.2935 59.5477C59.0799 58.2517 55.8761 54.9357 54.7147 50.6828C53.4635 46.0988 54.8438 39.6184 59.8654 36.6391C63.1645 34.681 68.2422 33.5589 76.8434 32.8856C88.6091 31.9654 89.288 17.5795 89.6527 9.84792L89.7201 8.51818C89.7369 8.26008 89.9445 8.06371 90.197 8.06371L90.1914 8.04688Z" fill="#A56100" fill-opacity="0.7"/>
<path d="M59.5124 0C59.7088 0 59.9108 0.0112215 60.1184 0.0336644C64.2591 0.46569 65.1007 2.68754 65.269 3.62453C65.5496 5.15065 64.8033 6.82265 63.5746 7.43983C61.4537 8.50025 59.1197 7.65303 58.1827 6.25596C57.5767 5.35263 57.6553 4.3932 58.3903 3.74236C58.5867 3.56842 58.8896 3.58526 59.0692 3.78724C59.2431 3.98362 59.2263 4.2866 59.0243 4.46614C58.5586 4.87572 58.7438 5.37508 58.9794 5.72855C59.5798 6.61505 61.3135 7.50154 63.1482 6.58699C63.8888 6.21669 64.5509 5.04404 64.3264 3.80407C64.0459 2.25551 62.5142 1.2568 60.0174 0.99871C57.2569 0.706952 55.3324 2.86708 55.0968 5.11698C54.8555 7.40616 56.3031 10.2732 61.19 10.8063C68.6243 11.6198 76.5466 4.79717 79.6157 1.82349C79.8064 1.63833 80.1094 1.64394 80.2946 1.83471C80.4797 2.02547 80.4741 2.32845 80.2833 2.51361C77.1189 5.57706 68.9216 12.6129 61.089 11.7601C55.8598 11.1878 53.8344 7.96162 54.1486 5.01599C54.4179 2.45189 56.4714 0 59.5124 0Z" fill="#A56100" fill-opacity="0.7"/>
<path d="M63.6879 11.0837C63.7496 11.0837 63.817 11.095 63.8843 11.123C64.1255 11.2296 64.2321 11.5158 64.1255 11.757C63.3008 13.6086 64.1929 18.8265 65.0625 23.1692C65.7302 26.5076 65.2196 29.5318 63.615 31.6807C62.3133 33.42 60.3664 34.458 57.9874 34.6768C53.7962 35.0584 50.4241 32.8814 49.5881 29.2569C49.33 28.1347 49.3581 26.9509 49.6779 25.8343C50.0763 24.4204 51.002 23.2534 52.2869 22.5352C53.5662 21.8171 55.053 21.6431 56.4613 22.0471C57.5947 22.3669 58.5316 23.1131 59.1095 24.1399C59.6818 25.1667 59.8221 26.3617 59.5023 27.4895C59.2442 28.4041 58.6439 29.1615 57.8135 29.6272C56.9831 30.0873 56.0236 30.1995 55.1091 29.9414C54.3629 29.7282 53.7457 29.2401 53.3698 28.5668C52.9939 27.8935 52.9041 27.1136 53.1173 26.3674C53.1902 26.1149 53.4539 25.9634 53.712 26.0363C53.9645 26.1093 54.116 26.373 54.0431 26.6311C53.9028 27.1248 53.9645 27.6466 54.2114 28.1011C54.4639 28.5499 54.8735 28.881 55.3728 29.0212C56.0405 29.212 56.7418 29.1278 57.3478 28.7912C57.9537 28.4545 58.3914 27.8991 58.5821 27.2314C58.8346 26.3449 58.728 25.4135 58.2792 24.6056C57.8303 23.8033 57.0953 23.2197 56.2088 22.9673C55.0418 22.6362 53.8186 22.7765 52.7638 23.3712C51.7034 23.9604 50.9403 24.931 50.6093 26.0924C50.3344 27.0519 50.3119 28.0674 50.5307 29.0325C51.2545 32.1688 54.2226 34.0541 57.9089 33.7118C60.0129 33.521 61.7241 32.6177 62.8575 31.0972C64.277 29.2008 64.7371 26.373 64.1312 23.3488C62.7621 16.5149 62.5096 13.0419 63.2559 11.3643C63.3344 11.1847 63.5084 11.0781 63.6935 11.0781L63.6879 11.0837Z" fill="#A56100" fill-opacity="0.7"/>
<path d="M14.891 0.613281H56.9714C57.2351 0.613281 57.4483 0.826489 57.4483 1.09019C57.4483 1.3539 57.2351 1.5671 56.9714 1.5671H14.891C14.6273 1.5671 14.4141 1.3539 14.4141 1.09019C14.4141 0.826489 14.6273 0.613281 14.891 0.613281Z" fill="#A56100" fill-opacity="0.7"/>
<path d="M29.5277 4.48828H54.5403C54.804 4.48828 55.0172 4.70149 55.0172 4.96519C55.0172 5.2289 54.804 5.4421 54.5403 5.4421H29.5277C29.264 5.4421 29.0508 5.2289 29.0508 4.96519C29.0508 4.70149 29.264 4.48828 29.5277 4.48828Z" fill="#A56100" fill-opacity="0.7"/>
<path d="M45.3357 4.8728C45.5601 4.8728 45.7621 5.0299 45.807 5.25994C47.7988 15.5725 58.9024 16.386 63.0151 15.8305C63.2844 15.7969 63.5201 15.982 63.5537 16.2401C63.5874 16.5038 63.4079 16.7451 63.1442 16.7788C58.7846 17.3679 46.9965 16.4814 44.8644 5.43948C44.8139 5.18139 44.9822 4.92891 45.2459 4.87841C45.274 4.8728 45.3077 4.86719 45.3357 4.86719V4.8728Z" fill="#A56100" fill-opacity="0.7"/>
<path d="M79.8453 32.3125C79.9014 32.3125 79.9519 32.3237 80.008 32.3406C80.2549 32.4303 80.3839 32.7053 80.2941 32.9521C76.1198 44.5495 89.4396 51.8771 89.5743 51.95C89.8099 52.0735 89.8941 52.3652 89.7707 52.6009C89.6472 52.8365 89.3555 52.9207 89.1198 52.7973C88.9795 52.7187 74.9415 44.9927 79.3964 32.6267C79.4694 32.4303 79.6489 32.3125 79.8453 32.3125Z" fill="#A56100" fill-opacity="0.7"/>
<path d="M3.32596 0.679688C5.17189 0.679688 6.72045 1.91966 8.49344 3.33917C10.4516 4.90457 12.6678 6.68317 15.8435 7.21058C21.9143 8.22051 25.8923 2.73321 26.358 1.24076C26.4365 0.988278 26.7059 0.848009 26.9583 0.92656C27.2108 1.00511 27.3511 1.27442 27.2725 1.52691C26.7564 3.18207 22.3688 9.27532 15.6864 8.15879C12.2638 7.58649 9.94662 5.72934 7.89309 4.09101C6.05838 2.621 4.6052 1.45958 2.92759 1.66718C2.66389 1.69523 2.42263 1.51569 2.39458 1.25198C2.36091 0.988278 2.54607 0.747016 2.80977 0.718963C2.9837 0.69652 3.15763 0.685298 3.32596 0.685298V0.679688Z" fill="#A56100" fill-opacity="0.7"/>
<path d="M0 3.54478C0 1.9345 1.30169 0.632812 2.90636 0.632812C4.51102 0.632812 5.81271 1.9345 5.81271 3.53917C5.81271 5.14384 4.51102 6.44553 2.90636 6.44553C1.30169 6.44553 0 5.14945 0 3.54478Z" fill="#A56100" fill-opacity="0.7"/>
<path d="M86.7014 4.41577C86.7014 4.41577 86.7294 4.41577 86.7406 4.41577C86.8865 4.4326 87.0043 4.53359 87.0492 4.67386C87.0717 4.75802 89.5011 13.3537 86.3928 21.3209C83.2508 29.3779 72.7643 30.7132 72.6577 30.7245C72.523 30.7357 72.394 30.6796 72.3154 30.5674C72.2425 30.4552 72.2313 30.3093 72.2986 30.1915L86.3872 4.59531C86.4489 4.47748 86.5723 4.41016 86.7014 4.41016V4.41577ZM73.2805 29.8941C75.6426 29.4396 83.2003 27.5151 85.7139 21.0628C88.1601 14.7956 87.0773 8.11885 86.5667 5.75673L73.2805 29.8941Z" fill="#A56100" fill-opacity="0.7"/>
<path d="M84.5969 3.29297C84.7035 3.29297 84.8045 3.34347 84.8774 3.42763C84.9672 3.53984 84.9841 3.69694 84.9111 3.82599L70.9853 29.5119C70.9236 29.6297 70.8114 29.6971 70.6599 29.7027C70.5252 29.7027 70.4018 29.6241 70.3457 29.5007C70.3008 29.4053 65.7561 19.8615 70.8394 12.8649C75.8666 5.93562 84.4118 3.34347 84.4959 3.31541C84.5296 3.30419 84.5632 3.29858 84.5969 3.29858V3.29297ZM70.7104 28.5132L83.8451 4.29168C81.584 5.13329 75.3785 7.82644 71.4229 13.2745C67.3551 18.8796 69.8126 26.2745 70.7104 28.5132Z" fill="#A56100" fill-opacity="0.7"/>
</svg>
