<svg width="101" height="97" viewBox="0 0 101 97" fill="none" xmlns="http://www.w3.org/2000/svg">
<path d="M93.9997 59.5938C94.2634 59.5938 94.4766 59.3806 94.4766 59.1169V14.5248C94.4766 14.2612 94.2634 14.048 93.9997 14.048C93.7361 14.048 93.5229 14.2612 93.5229 14.5248V59.1169C93.5229 59.3806 93.7361 59.5938 93.9997 59.5938Z" fill="#A56100" fill-opacity="0.7"/>
<path d="M89.3513 61.3359C89.615 61.3359 89.8281 61.1228 89.8281 60.8591V32.5522C89.8281 32.2885 89.615 32.0754 89.3513 32.0754C89.0876 32.0754 88.8745 32.2885 88.8745 32.5522V60.8591C88.8745 61.1228 89.0876 61.3359 89.3513 61.3359Z" fill="#A56100" fill-opacity="0.7"/>
<path d="M93.9192 30.4535C92.5785 29.7242 91.3387 28.7425 90.2785 27.6374C89.207 26.5435 88.3431 25.2476 87.7934 23.8452C87.2268 22.4484 87.0024 20.9225 87.1426 19.4135C87.2604 17.91 87.6643 16.4235 88.3768 15.1052C89.0892 13.7813 90.1326 12.6481 91.2939 11.6327C92.4551 10.6117 93.7565 9.71417 94.9178 8.56977C96.0958 7.47026 97.0327 5.86024 96.9653 4.12683C96.9429 3.25731 96.567 2.40463 95.978 1.79317C95.4002 1.16487 94.6822 0.732918 93.8856 0.452429C93.7565 0.407551 93.6107 0.474869 93.5602 0.609503C93.5153 0.738527 93.5826 0.878767 93.7061 0.929255L93.7285 0.940477C95.0861 1.47341 96.309 2.70194 96.2529 4.15487C96.2529 4.8561 96.0566 5.60781 95.7087 6.24171C95.5685 6.5783 95.3161 6.85879 95.1141 7.16171C94.8561 7.43098 94.6261 7.7283 94.3344 7.97513C93.218 9.01294 91.9053 9.89929 90.6936 10.9539C89.4763 11.9917 88.3375 13.2091 87.5409 14.6564C86.7275 16.0981 86.318 17.7305 86.2058 19.3574C86.0712 20.9898 86.3236 22.6727 86.9687 24.1818C88.2646 27.2335 90.817 29.5054 93.6892 30.9191C93.8126 30.9808 93.9697 30.9303 94.0314 30.8013C94.0931 30.6779 94.0426 30.532 93.9248 30.4647L93.908 30.4535H93.9192Z" fill="#A56100" fill-opacity="0.7"/>
<path d="M90.0897 2.95892C90.0897 4.58015 91.408 5.89844 93.0292 5.89844C94.6505 5.89844 95.9688 4.58015 95.9688 2.95892C95.9688 1.3377 94.6505 0.0193968 93.0292 0.0193968C91.408 0.0193968 90.0897 1.3377 90.0897 2.95892Z" fill="#A56100" fill-opacity="0.7"/>
<path d="M87.2196 70.9297C87.2869 70.9297 87.3598 70.9129 87.4271 70.8848C87.6627 70.7726 87.7637 70.4809 87.6515 70.2453C85.8957 66.5989 87.4271 62.2065 91.0735 60.4506C92.431 59.7943 93.9625 59.7101 95.3874 60.2038C96.8123 60.7031 97.9567 61.724 98.613 63.0816C99.1123 64.1194 99.1796 65.2919 98.8037 66.3802C98.4223 67.4685 97.6425 68.3436 96.5991 68.8485C95.8081 69.2299 94.9162 69.2804 94.0915 68.9887C93.2669 68.7026 92.5993 68.108 92.2179 67.317C91.9318 66.7224 91.8925 66.0492 92.1113 65.4265C92.3301 64.8038 92.7732 64.3045 93.3679 64.0184C93.811 63.8053 94.3047 63.7772 94.7703 63.9399C95.2303 64.1026 95.6062 64.4336 95.8193 64.8711C95.9315 65.1123 96.2176 65.2077 96.4589 65.0955C96.6945 64.9833 96.7954 64.6916 96.6833 64.456C96.3579 63.7828 95.7913 63.278 95.0901 63.0367C94.3832 62.7899 93.6259 62.8348 92.9584 63.1601C92.1337 63.5584 91.511 64.2484 91.2137 65.1124C90.9108 65.9763 90.9669 66.9075 91.3652 67.7321C91.8532 68.7531 92.7171 69.5216 93.783 69.8919C94.8545 70.2677 96.0045 70.2004 97.0254 69.7068C98.2933 69.0953 99.2525 68.0238 99.7181 66.6943C100.184 65.3648 100.1 63.9287 99.4881 62.6609C98.7196 61.0733 97.3845 59.8784 95.7184 59.295C94.0523 58.7116 92.2571 58.8126 90.6696 59.5811C86.552 61.567 84.813 66.5372 86.7988 70.6548C86.883 70.8287 87.0513 70.9241 87.2308 70.9241L87.2196 70.9297Z" fill="#A56100" fill-opacity="0.7"/>
<path d="M90.1851 88.4141C90.1851 88.4141 90.2019 88.4141 90.2131 88.4141C90.4768 88.3972 90.6787 88.1728 90.6675 87.9092L90.6002 86.5853C90.2244 78.5633 89.5231 63.6245 76.9124 62.6371C68.4696 61.9752 63.5162 60.8925 60.3523 59.0188C55.7411 56.2813 54.4845 50.2957 55.6401 46.0547C56.7116 42.1166 59.6791 39.0537 63.5779 37.8532C68.4079 36.3666 73.5465 39.0873 75.0331 43.9173C76.1831 47.6478 74.0794 51.6196 70.3489 52.764C68.9577 53.1959 67.4879 53.0557 66.2033 52.3713C64.9187 51.6925 63.9762 50.5481 63.5443 49.1625C63.2189 48.0966 63.3255 46.9747 63.8416 45.9873C64.3633 45.0056 65.2328 44.282 66.2987 43.9566C67.1065 43.7098 67.9592 43.7883 68.7053 44.181C69.4514 44.5737 70.0011 45.2356 70.2479 46.0434C70.4331 46.6493 70.3714 47.2944 70.0797 47.8498C69.7823 48.4108 69.2887 48.8203 68.6828 49.0054C68.234 49.1456 67.7572 49.1008 67.3477 48.8764C66.9326 48.6576 66.6296 48.2873 66.4894 47.8442C66.4109 47.5917 66.1472 47.4515 65.8892 47.5244C65.6367 47.603 65.4965 47.8722 65.5694 48.1247C65.7826 48.8147 66.2538 49.3869 66.8933 49.7234C67.5328 50.06 68.2677 50.133 68.9633 49.9198C69.816 49.6561 70.5116 49.0783 70.9267 48.293C71.3419 47.5076 71.426 46.6044 71.1679 45.7517C70.8426 44.7027 70.1301 43.8388 69.1596 43.3227C68.1892 42.8066 67.0728 42.7056 66.0182 43.0254C64.7111 43.4293 63.6396 44.3156 63.0001 45.5273C62.3606 46.7391 62.2316 48.1247 62.6299 49.4317C63.1348 51.0642 64.2399 52.4105 65.7545 53.2071C67.2692 54.0093 68.997 54.172 70.635 53.6671C74.8704 52.3657 77.2546 47.861 75.9531 43.62C74.315 38.2851 68.6379 35.2783 63.2974 36.922C59.0845 38.2178 55.8813 41.5332 54.7201 45.7854C53.4691 50.3686 54.8491 56.8479 59.8699 59.8267C63.1684 61.7845 68.2453 62.9064 76.845 63.5796C88.6087 64.4996 89.2875 78.8831 89.6522 86.6133L89.7195 87.9428C89.7307 88.2009 89.9439 88.3972 90.1963 88.3972L90.1851 88.4141Z" fill="#A56100" fill-opacity="0.7"/>
<path d="M59.5179 96.4609C59.7142 96.4609 59.9162 96.4497 60.1237 96.4273C64.2638 95.9953 65.1052 93.7739 65.2791 92.837C65.554 91.3112 64.8135 89.6395 63.585 89.0224C61.4645 87.9621 59.1308 88.8092 58.194 90.206C57.5881 91.1092 57.6667 92.0685 58.4015 92.7192C58.5979 92.8931 58.9008 92.8763 59.0803 92.6743C59.2542 92.478 59.2374 92.1751 59.0354 91.9956C58.5698 91.586 58.755 91.0868 58.9906 90.7334C59.5908 89.847 61.3242 88.9607 63.1586 89.8751C63.8991 90.2453 64.5611 91.4178 64.3367 92.6575C64.0562 94.2058 62.5247 95.2043 60.0284 95.4624C57.2684 95.7541 55.3442 93.5943 55.1086 91.3448C54.8674 89.056 56.3147 86.1894 61.2008 85.6565C68.6338 84.8431 76.5548 91.6646 79.6233 94.6378C79.814 94.8229 80.117 94.8173 80.3021 94.6265C80.4872 94.4358 80.4816 94.1329 80.2909 93.9478C77.127 90.8848 68.9311 83.8502 61.0998 84.7029C55.8715 85.275 53.8464 88.5007 54.1605 91.4458C54.4186 94.0095 56.4774 96.4609 59.5179 96.4609Z" fill="#A56100" fill-opacity="0.7"/>
<path d="M63.6915 85.3811C63.7588 85.3811 63.8205 85.3699 63.8879 85.3418C64.1291 85.2353 64.2357 84.9492 64.1291 84.7079C63.3044 82.8567 64.1964 77.6396 65.0659 73.2977C65.7335 69.9598 65.223 66.9362 63.6186 64.7876C62.3171 63.0486 60.3705 62.0108 57.992 61.792C53.8015 61.4105 50.43 63.5871 49.5941 67.2111C49.3361 68.333 49.3641 69.5167 49.6839 70.633C50.0822 72.0467 51.0078 73.2135 52.2924 73.9316C53.5715 74.6496 55.0581 74.8235 56.4661 74.4196C57.5993 74.0999 58.5361 73.3538 59.1139 72.3272C59.6861 71.3006 59.8264 70.1057 59.5066 68.9781C59.2486 68.0637 58.6483 67.3064 57.8181 66.8408C56.9878 66.3808 56.0286 66.2686 55.1142 66.5267C54.3681 66.7398 53.751 67.2279 53.3751 67.9011C52.9993 68.5742 52.9095 69.354 53.1227 70.1001C53.1956 70.3525 53.4593 70.504 53.7173 70.4311C53.9698 70.3581 54.1212 70.0945 54.0483 69.8364C53.9081 69.3428 53.9698 68.8211 54.2166 68.3667C54.469 67.9179 54.8786 67.5869 55.3778 67.4467C56.0454 67.2559 56.7466 67.3401 57.3525 67.6767C57.9583 68.0132 58.3959 68.5686 58.5866 69.2362C58.8391 70.1225 58.7325 71.0537 58.2837 71.8616C57.8349 72.6638 57.1 73.2472 56.2137 73.4996C55.0468 73.8306 53.8239 73.6903 52.7693 73.0957C51.709 72.5067 50.9461 71.5362 50.6151 70.375C50.3402 69.4157 50.3178 68.4003 50.5422 67.4354C51.2659 64.2996 54.2334 62.4147 57.9191 62.7569C60.0227 62.9476 61.7337 63.8508 62.8669 65.371C64.2861 67.2671 64.7461 70.0945 64.1403 73.1181C62.7715 79.9508 62.5191 83.4233 63.2652 85.1006C63.3437 85.2801 63.5176 85.3867 63.7027 85.3867L63.6915 85.3811Z" fill="#A56100" fill-opacity="0.7"/>
<path d="M14.9047 95.8516H56.9724C57.236 95.8516 57.4492 95.6384 57.4492 95.3747C57.4492 95.1111 57.236 94.8979 56.9724 94.8979H14.9047C14.641 94.8979 14.4279 95.1111 14.4279 95.3747C14.4279 95.6384 14.641 95.8516 14.9047 95.8516Z" fill="#A56100" fill-opacity="0.7"/>
<path d="M29.5382 91.9727H54.5466C54.8103 91.9727 55.0234 91.7595 55.0234 91.4958C55.0234 91.2322 54.8103 91.019 54.5466 91.019H29.5382C29.2746 91.019 29.0614 91.2322 29.0614 91.4958C29.0614 91.7595 29.2746 91.9727 29.5382 91.9727Z" fill="#A56100" fill-opacity="0.7"/>
<path d="M45.3435 91.5881C45.5679 91.5881 45.7699 91.4311 45.8147 91.2011C47.8062 80.8903 58.9079 80.0769 63.0199 80.6323C63.2892 80.6659 63.5248 80.4808 63.5584 80.2227C63.5921 79.9591 63.4126 79.7179 63.1489 79.6842C58.7901 79.0952 47.004 79.9815 44.8723 91.0216C44.8218 91.2796 44.9901 91.532 45.2538 91.5825C45.2818 91.5881 45.3155 91.5938 45.3435 91.5938V91.5881Z" fill="#A56100" fill-opacity="0.7"/>
<path d="M79.8478 64.1562C79.9039 64.1562 79.9544 64.145 80.0105 64.1282C80.2573 64.0384 80.3864 63.7636 80.2966 63.5167C76.1229 51.9213 89.4405 44.595 89.5752 44.522C89.8108 44.3986 89.8949 44.1069 89.7715 43.8713C89.6481 43.6357 89.3564 43.5516 89.1208 43.675C88.9805 43.7535 74.9449 51.4782 79.399 63.8421C79.472 64.0384 79.6515 64.1562 79.8478 64.1562Z" fill="#A56100" fill-opacity="0.7"/>
<path d="M3.34036 95.7812C5.18598 95.7812 6.73428 94.5415 8.50697 93.1222C10.4648 91.5571 12.6806 89.7788 15.8558 89.2515C21.9255 88.2417 25.9029 93.7281 26.3685 95.2203C26.447 95.4727 26.7163 95.613 26.9687 95.5344C27.2212 95.4559 27.3614 95.1866 27.2829 94.9342C26.7668 93.2793 22.3799 87.1871 15.6987 88.3034C12.2767 88.8756 9.95989 90.7325 7.90672 92.3705C6.07232 93.8403 4.61939 95.0015 2.94207 94.7939C2.67841 94.7659 2.43719 94.9454 2.40914 95.2091C2.37548 95.4727 2.5606 95.7139 2.82426 95.742C2.99817 95.7644 3.17207 95.7756 3.34036 95.7756V95.7812Z" fill="#A56100" fill-opacity="0.7"/>
<path d="M0.0163989 92.9144C0.0163989 94.5188 1.31786 95.8203 2.92226 95.8203C4.52665 95.8203 5.82812 94.5188 5.82812 92.9144C5.82812 91.3101 4.52665 90.0086 2.92226 90.0086C1.31786 90.0086 0.0163989 91.3101 0.0163989 92.9144Z" fill="#A56100" fill-opacity="0.7"/>
<path d="M86.3846 91.8595L72.2985 66.2678C72.2311 66.15 72.2424 66.0041 72.3153 65.8919C72.3882 65.7797 72.5229 65.7236 72.6575 65.7348C72.7641 65.7461 83.2487 67.0812 86.3902 75.1368C89.498 83.1083 87.0746 91.6969 87.0466 91.781C87.0073 91.9213 86.8839 92.0222 86.738 92.0391C86.7268 92.0391 86.71 92.0391 86.6988 92.0391C86.5697 92.0391 86.4463 91.9661 86.3846 91.8539V91.8595ZM86.5697 90.7039C87.0802 88.3478 88.1629 81.6722 85.717 75.4005C83.1983 68.9492 75.6475 67.0195 73.2858 66.5707L86.5697 90.7039Z" fill="#A56100" fill-opacity="0.7"/>
<path d="M84.493 93.1511C84.4089 93.1287 75.8652 90.5314 70.8388 83.6033C65.7564 76.6079 70.3003 67.0657 70.3452 66.9703C70.4013 66.8469 70.5247 66.774 70.6593 66.7684C70.8052 66.7684 70.9174 66.8357 70.9847 66.9591L84.9138 92.635C84.9811 92.7641 84.9699 92.9211 84.8801 93.0333C84.8128 93.1175 84.7062 93.168 84.5996 93.168C84.5659 93.168 84.5323 93.168 84.4986 93.1511H84.493ZM71.4222 83.1826C75.3771 88.6297 81.5816 91.3224 83.8423 92.1638L70.7098 67.9464C69.8122 70.1791 67.3552 77.5728 71.4222 83.1826Z" fill="#A56100" fill-opacity="0.7"/>
</svg>
