<svg width="100" height="97" viewBox="0 0 100 97" fill="none" xmlns="http://www.w3.org/2000/svg">
<path d="M6.01394 36.8672C5.75028 36.8672 5.53711 37.0804 5.53711 37.344V81.9361C5.53711 82.1998 5.75028 82.4129 6.01394 82.4129C6.2776 82.4129 6.49077 82.1998 6.49077 81.9361V37.344C6.49077 37.0804 6.2776 36.8672 6.01394 36.8672Z" fill="#A56100" fill-opacity="0.7"/>
<path d="M10.6643 35.125C10.4007 35.125 10.1875 35.3382 10.1875 35.6018V63.9087C10.1875 64.1724 10.4007 64.3856 10.6643 64.3856C10.928 64.3856 11.1412 64.1724 11.1412 63.9087V35.6018C11.1412 35.3382 10.928 35.125 10.6643 35.125Z" fill="#A56100" fill-opacity="0.7"/>
<path d="M6.09835 66.0074C7.43909 66.7367 8.67885 67.7184 9.73909 68.8235C10.8106 69.9175 11.6745 71.2133 12.2242 72.6158C12.7908 74.0126 13.0152 75.5384 12.875 77.0475C12.7572 78.5509 12.3532 80.0375 11.6408 81.3558C10.9284 82.6797 9.88495 83.8129 8.72372 84.8282C7.5625 85.8492 6.26103 86.7468 5.09981 87.8912C3.92176 88.9907 2.98492 90.6007 3.05224 92.3341C3.07468 93.2036 3.45054 94.0563 4.03956 94.6678C4.61737 95.2961 5.33542 95.728 6.13201 96.0085C6.26103 96.0534 6.40689 95.9861 6.45737 95.8514C6.50225 95.7224 6.43494 95.5822 6.31152 95.5317L6.28908 95.5205C4.93152 94.9875 3.70859 93.759 3.76468 92.3061C3.76468 91.6048 3.96103 90.8531 4.30883 90.2192C4.44908 89.8826 4.70152 89.6021 4.90347 89.2992C5.16152 89.03 5.39152 88.7326 5.68323 88.4858C6.79957 87.448 8.11226 86.5616 9.32397 85.507C10.5413 84.4692 11.6801 83.2519 12.4767 81.8046C13.2901 80.3629 13.6996 78.7304 13.8118 77.1036C13.9464 75.4711 13.694 73.7882 13.0489 72.2792C11.753 69.2275 9.20055 66.9555 6.32835 65.5418C6.20494 65.4801 6.04786 65.5306 5.98615 65.6596C5.92445 65.783 5.97493 65.9289 6.09274 65.9962L6.10957 66.0074H6.09835Z" fill="#A56100" fill-opacity="0.7"/>
<path d="M9.92396 93.502C9.92396 91.8808 8.60567 90.5625 6.98444 90.5625C5.36322 90.5625 4.04492 91.8808 4.04492 93.502C4.04492 95.1232 5.36322 96.4415 6.98444 96.4415C8.60567 96.4415 9.92396 95.1232 9.92396 93.502Z" fill="#A56100" fill-opacity="0.7"/>
<path d="M12.7961 25.5312C12.7287 25.5312 12.6558 25.5481 12.5885 25.5761C12.3529 25.6883 12.2519 25.98 12.3641 26.2156C14.12 29.862 12.5885 34.2545 8.94215 36.0103C7.58458 36.6667 6.05311 36.7508 4.62823 36.2571C3.20335 35.7579 2.05895 34.7369 1.40261 33.3793C0.90334 32.3415 0.836023 31.1691 1.21188 30.0808C1.59334 28.9925 2.3731 28.1174 3.41652 27.6125C4.2075 27.231 5.09945 27.1805 5.92409 27.4722C6.74872 27.7583 7.41629 28.353 7.79775 29.1439C8.08385 29.7386 8.12312 30.4118 7.90434 31.0344C7.68556 31.6571 7.24238 32.1564 6.64775 32.4425C6.20458 32.6557 5.71092 32.6837 5.24531 32.521C4.7853 32.3583 4.40945 32.0274 4.19628 31.5898C4.08408 31.3486 3.79798 31.2532 3.55676 31.3654C3.32115 31.4776 3.22018 31.7693 3.33237 32.0049C3.65774 32.6781 4.22433 33.183 4.92555 33.4242C5.63238 33.671 6.3897 33.6262 7.05726 33.3008C7.8819 32.9025 8.50458 32.2125 8.8019 31.3486C9.10483 30.4847 9.04873 29.5535 8.65044 28.7288C8.16239 27.7078 7.29848 26.9393 6.23263 26.5691C5.16116 26.1932 4.01116 26.2605 2.99018 26.7542C1.72237 27.3656 0.763096 28.4371 0.297485 29.7666C-0.168127 31.0961 -0.08398 32.5322 0.527485 33.8001C1.29602 35.3876 2.63115 36.5825 4.29725 37.1659C5.96336 37.7493 7.75848 37.6484 9.34605 36.8798C13.4636 34.894 15.2027 29.9237 13.2168 25.8061C13.1326 25.6322 12.9644 25.5369 12.7848 25.5369L12.7961 25.5312Z" fill="#A56100" fill-opacity="0.7"/>
<path d="M9.82859 8.04688C9.82859 8.04688 9.81176 8.04688 9.80054 8.04688C9.53688 8.0637 9.33493 8.2881 9.34615 8.55175L9.41347 9.87566C9.78932 17.8976 10.4905 32.8365 23.1013 33.8238C31.544 34.4857 36.4975 35.5684 39.6614 37.4421C44.2726 40.1797 45.5292 46.1653 44.3736 50.4063C43.3021 54.3443 40.3345 57.4073 36.4357 58.6078C31.6057 60.0944 26.4672 57.3736 24.9806 52.5436C23.8306 48.8131 25.9342 44.8414 29.6648 43.697C31.056 43.265 32.5257 43.4053 33.8104 44.0897C35.095 44.7685 36.0375 45.9128 36.4694 47.2985C36.7948 48.3643 36.6882 49.4863 36.1721 50.4736C35.6504 51.4553 34.7809 52.179 33.715 52.5043C32.9072 52.7512 32.0545 52.6726 31.3084 52.2799C30.5623 51.8873 30.0126 51.2253 29.7657 50.4175C29.5806 49.8116 29.6423 49.1665 29.934 48.6111C30.2313 48.0502 30.725 47.6407 31.3309 47.4555C31.7796 47.3153 32.2565 47.3602 32.666 47.5846C33.0811 47.8033 33.384 48.1736 33.5243 48.6168C33.6028 48.8692 33.8665 49.0094 34.1245 48.9365C34.377 48.858 34.5172 48.5887 34.4443 48.3363C34.2311 47.6463 33.7599 47.0741 33.1204 46.7375C32.4809 46.4009 31.746 46.328 31.0504 46.5411C30.1977 46.8048 29.5021 47.3826 29.0869 48.168C28.6718 48.9534 28.5877 49.8565 28.8457 50.7092C29.1711 51.7582 29.8835 52.6221 30.854 53.1382C31.8245 53.6543 32.9409 53.7553 33.9955 53.4356C35.3026 53.0317 36.374 52.1453 37.0136 50.9336C37.6531 49.7219 37.7821 48.3363 37.3838 47.0292C36.8789 45.3968 35.7738 44.0504 34.2592 43.2538C32.7445 42.4516 31.0167 42.2889 29.3787 42.7938C25.1433 44.0953 22.7591 48.5999 24.0606 52.8409C25.6986 58.1758 31.3757 61.1827 36.7162 59.539C40.9292 58.2431 44.1324 54.9278 45.2936 50.6756C46.5446 46.0924 45.1646 39.6131 40.1438 36.6343C36.8453 34.6765 31.7684 33.5545 23.1686 32.8813C11.4049 31.9613 10.7262 17.5779 10.3615 9.84761L10.2942 8.5181C10.283 8.26005 10.0698 8.0637 9.81737 8.0637L9.82859 8.04688Z" fill="#A56100" fill-opacity="0.7"/>
<path d="M40.4977 0C40.3014 0 40.0995 0.0112195 39.8919 0.0336586C35.7519 0.465611 34.9104 2.68708 34.7365 3.62391C34.4616 5.14977 35.2021 6.82149 36.4307 7.43856C38.5512 8.49881 40.8848 7.65173 41.8216 6.2549C42.4275 5.35172 42.349 4.39245 41.6141 3.74172C41.4177 3.56782 41.1148 3.58465 40.9353 3.7866C40.7614 3.98294 40.7782 4.28587 40.9802 4.46538C41.4458 4.87489 41.2607 5.37416 41.0251 5.72758C40.4248 6.61392 38.6914 7.50027 36.857 6.58587C36.1165 6.21563 35.4546 5.04319 35.6789 3.80343C35.9594 2.25513 37.4909 1.25659 39.9873 0.99854C42.7473 0.706832 44.6714 2.86659 44.907 5.11611C45.1482 7.4049 43.7009 10.2715 38.8148 10.8044C31.3819 11.6178 23.4609 4.79636 20.3923 1.82318C20.2016 1.63805 19.8987 1.64366 19.7135 1.8344C19.5284 2.02513 19.534 2.32806 19.7248 2.51318C22.8887 5.57612 31.0845 12.6108 38.9158 11.7581C44.1441 11.1859 46.1692 7.96027 45.8551 5.01514C45.597 2.45147 43.5382 0 40.4977 0Z" fill="#A56100" fill-opacity="0.7"/>
<path d="M36.3241 11.0798C36.2568 11.0798 36.1951 11.091 36.1278 11.1191C35.8866 11.2257 35.78 11.5118 35.8866 11.753C36.7112 13.6042 35.8192 18.8213 34.9497 23.1633C34.2822 26.5011 34.7926 29.5248 36.397 31.6733C37.6985 33.4123 39.6451 34.4501 42.0236 34.6689C46.2141 35.0504 49.5856 32.8738 50.4215 29.2499C50.6795 28.1279 50.6515 26.9443 50.3317 25.8279C49.9334 24.4143 49.0078 23.2474 47.7232 22.5294C46.4441 21.8113 44.9576 21.6374 43.5495 22.0413C42.4163 22.3611 41.4795 23.1072 40.9017 24.1338C40.3295 25.1604 40.1892 26.3552 40.509 27.4828C40.7671 28.3972 41.3673 29.1545 42.1975 29.6201C43.0278 30.0801 43.9871 30.1923 44.9015 29.9343C45.6476 29.7211 46.2646 29.2331 46.6405 28.5599C47.0163 27.8867 47.1061 27.107 46.8929 26.3609C46.82 26.1084 46.5563 25.957 46.2983 26.0299C46.0459 26.1028 45.8944 26.3665 45.9673 26.6245C46.1076 27.1182 46.0459 27.6399 45.799 28.0943C45.5466 28.5431 45.1371 28.874 44.6378 29.0143C43.9702 29.205 43.269 29.1209 42.6632 28.7843C42.0573 28.4477 41.6197 27.8923 41.429 27.2248C41.1766 26.3384 41.2832 25.4072 41.7319 24.5994C42.1807 23.7972 42.9156 23.2138 43.8019 22.9613C44.9688 22.6304 46.1917 22.7706 47.2463 23.3652C48.3066 23.9543 49.0695 24.9248 49.4005 26.086C49.6754 27.0452 49.6978 28.0606 49.4734 29.0255C48.7498 32.1614 45.7822 34.0462 42.0966 33.7041C39.9929 33.5133 38.2819 32.6101 37.1488 31.0899C35.7295 29.1938 35.2695 26.3665 35.8753 23.3428C37.2441 16.5101 37.4966 13.0376 36.7505 11.3603C36.6719 11.1808 36.498 11.0742 36.3129 11.0742L36.3241 11.0798Z" fill="#A56100" fill-opacity="0.7"/>
<path d="M85.1129 0.609375H43.0452C42.7815 0.609375 42.5684 0.822546 42.5684 1.08621C42.5684 1.34987 42.7815 1.56304 43.0452 1.56304H85.1129C85.3765 1.56304 85.5897 1.34987 85.5897 1.08621C85.5897 0.822546 85.3765 0.609375 85.1129 0.609375Z" fill="#A56100" fill-opacity="0.7"/>
<path d="M70.4754 4.48828H45.4671C45.2034 4.48828 44.9902 4.70145 44.9902 4.96511C44.9902 5.22877 45.2034 5.44194 45.4671 5.44194H70.4754C70.7391 5.44194 70.9523 5.22877 70.9523 4.96511C70.9523 4.70145 70.7391 4.48828 70.4754 4.48828Z" fill="#A56100" fill-opacity="0.7"/>
<path d="M54.6721 4.8728C54.4477 4.8728 54.2458 5.02987 54.2009 5.25987C52.2094 15.5706 41.1077 16.3841 36.9957 15.8287C36.7264 15.795 36.4908 15.9802 36.4572 16.2382C36.4235 16.5019 36.603 16.7431 36.8667 16.7767C41.2255 17.3658 53.0116 16.4794 55.1433 5.43938C55.1938 5.18133 55.0255 4.92889 54.7619 4.87841C54.7338 4.8728 54.7002 4.86719 54.6721 4.86719V4.8728Z" fill="#A56100" fill-opacity="0.7"/>
<path d="M20.1678 32.3047C20.1117 32.3047 20.0612 32.3159 20.0051 32.3327C19.7583 32.4225 19.6293 32.6974 19.719 32.9442C23.8927 44.5396 10.5751 51.866 10.4404 51.9389C10.2048 52.0623 10.1207 52.354 10.2441 52.5896C10.3675 52.8252 10.6592 52.9094 10.8948 52.786C11.0351 52.7074 25.0707 44.9828 20.6166 32.6188C20.5437 32.4225 20.3641 32.3047 20.1678 32.3047Z" fill="#A56100" fill-opacity="0.7"/>
<path d="M96.6733 0.679688C94.8277 0.679688 93.2794 1.91945 91.5067 3.33872C89.5489 4.90385 87.333 6.68215 84.1579 7.20946C78.0881 8.21922 74.1108 2.73286 73.6452 1.24066C73.5666 0.988225 73.2974 0.847981 73.0449 0.926518C72.7925 1.00505 72.6523 1.27432 72.7308 1.52676C73.2469 3.18165 77.6337 9.27386 84.315 8.15752C87.7369 7.58532 90.0538 5.72848 92.107 4.09043C93.9414 2.62067 95.3943 1.45945 97.0716 1.66701C97.3353 1.69506 97.5765 1.51554 97.6045 1.25188C97.6382 0.988225 97.4531 0.747005 97.1894 0.718956C97.0155 0.696517 96.8416 0.685297 96.6733 0.685297V0.679688Z" fill="#A56100" fill-opacity="0.7"/>
<path d="M99.9992 3.54649C99.9992 1.94209 98.6978 0.640625 97.0934 0.640625C95.489 0.640625 94.1875 1.94209 94.1875 3.54649C94.1875 5.15088 95.489 6.45235 97.0934 6.45235C98.6978 6.45235 99.9992 5.15088 99.9992 3.54649Z" fill="#A56100" fill-opacity="0.7"/>
<path d="M13.631 4.60139L27.7172 30.1932C27.7845 30.311 27.7733 30.4568 27.7003 30.569C27.6274 30.6812 27.4928 30.7373 27.3581 30.7261C27.2515 30.7149 16.7669 29.3798 13.6254 21.3241C10.5176 13.3526 12.941 4.76407 12.9691 4.67992C13.0083 4.53968 13.1317 4.4387 13.2776 4.42188C13.2888 4.42188 13.3056 4.42188 13.3169 4.42188C13.4459 4.42188 13.5693 4.4948 13.631 4.607V4.60139ZM13.4459 5.757C12.9354 8.11311 11.8527 14.7887 14.2986 21.0605C16.8174 27.5117 24.3681 29.4415 26.7298 29.8902L13.4459 5.757Z" fill="#A56100" fill-opacity="0.7"/>
<path d="M15.5226 3.3098C15.6067 3.33224 24.1504 5.92956 29.1768 12.8576C34.2592 19.853 29.7153 29.3952 29.6705 29.4906C29.6144 29.614 29.4909 29.687 29.3563 29.6926C29.2105 29.6926 29.0983 29.6252 29.0309 29.5018L15.1019 3.8259C15.0346 3.69687 15.0458 3.5398 15.1355 3.4276C15.2028 3.34346 15.3094 3.29297 15.416 3.29297C15.4497 3.29297 15.4833 3.29297 15.517 3.3098H15.5226ZM28.5934 13.2784C24.6385 7.83128 18.4341 5.13858 16.1733 4.29712L29.3058 28.5145C30.2034 26.2818 32.6605 18.8881 28.5934 13.2784Z" fill="#A56100" fill-opacity="0.7"/>
</svg>
